<?xml version="1.0" encoding="UTF-8"?>
<svg width="1024px" height="1024px" version="1.1" viewBox="0 0 1024 1024" xmlns="http://www.w3.org/2000/svg" xmlns:xlink="http://www.w3.org/1999/xlink">
 <defs>
  <clipPath id="b" transform="translate(164 101.38)">
    <path id="d" d="m349 473.96c-192.75 0-349 156.25-349 349h698c0-192.75-156.25-349-349-349z" fill="#f00"/>
    <path d="m129.24 498.73h441.31c-0.606-121.35-99.165-219.53-220.66-219.53-121.49 0-220.05 98.184-220.66 219.53z" fill="#ff0"/>
    <path id="e" d="m184.63 164.37c0-90.778 73.59-164.37 164.37-164.37s164.37 73.59 164.37 164.37-73.59 164.37-164.37 164.37-164.37-73.59-164.37-164.37z" fill="#b8b8b8"/>
  </clipPath>
 </defs>
 <path id="c" d="m99.999 6.1035e-5h824q2.455 0 4.907 0.12045 2.451 0.12045 4.894 0.36107 2.443 0.24062 4.872 0.60082 2.428 0.3602 4.836 0.83911 2.407 0.47892 4.789 1.0754 2.381 0.59647 4.73 1.3091 2.349 0.71261 4.661 1.5396 2.311 0.82701 4.579 1.7664t4.487 1.989 4.384 2.2068 4.271 2.4193q2.105 1.262 4.146 2.6258 2.041 1.3639 4.013 2.8262 1.972 1.4624 3.87 3.0197 1.897 1.5573 3.716 3.2059t3.555 3.3844 3.384 3.5547q1.649 1.8189 3.205 3.7166 1.56 1.8976 3.02 3.8693 1.46 1.9718 2.83 4.0129 1.36 2.0411 2.62 4.1467t2.42 4.2706q1.16 2.1649 2.21 4.3841 1.05 2.2191 1.99 4.4871t1.76 4.5793q0.83 2.3113 1.54 4.6605 0.72 2.3491 1.31 4.7304 0.6 2.3813 1.08 4.7889 0.48 2.4077 0.84 4.836 0.36 2.4282 0.6 4.8712 0.24 2.4431 0.36 4.8949 0.12 2.4519 0.12 4.9068v824q0 2.455-0.12 4.907t-0.36 4.895-0.6 4.871-0.84 4.836q-0.48 2.407-1.08 4.789-0.59 2.381-1.31 4.73-0.71 2.349-1.54 4.661-0.82 2.311-1.76 4.579t-1.99 4.487-2.21 4.384-2.42 4.271q-1.26 2.105-2.62 4.146-1.37 2.042-2.83 4.013-1.46 1.972-3.02 3.87-1.556 1.897-3.205 3.716-1.648 1.819-3.384 3.555t-3.555 3.384q-1.819 1.649-3.716 3.205-1.898 1.56-3.87 3.02t-4.013 2.83q-2.041 1.36-4.146 2.62-2.106 1.26-4.271 2.42t-4.384 2.21-4.487 1.99-4.58 1.76q-2.311 0.83-4.66 1.54-2.349 0.72-4.73 1.31-2.382 0.6-4.789 1.08-2.408 0.48-4.836 0.84-2.429 0.36-4.872 0.6t-4.894 0.36q-2.452 0.12-4.907 0.12h-824q-2.4548 0-4.9067-0.12-2.4518-0.12-4.8949-0.36-2.443-0.24-4.8713-0.6-2.4282-0.36-4.8359-0.84t-4.7889-1.08q-2.3813-0.59-4.7304-1.31-2.3492-0.71-4.6605-1.54-2.3113-0.82-4.5793-1.76t-4.4871-1.99q-2.2192-1.05-4.3842-2.21-2.1649-1.16-4.2705-2.42t-4.1467-2.62q-2.0412-1.37-4.0129-2.83t-3.8694-3.02q-1.8976-1.556-3.7165-3.205-1.8189-1.648-3.5547-3.384-1.7359-1.736-3.3844-3.555-1.6486-1.819-3.2059-3.716-1.5574-1.898-3.0197-3.87-1.4624-1.971-2.8262-4.013-1.3638-2.041-2.6259-4.146-1.262-2.106-2.4192-4.271t-2.2068-4.384q-1.0496-2.219-1.989-4.487-0.93943-2.268-1.7664-4.579-0.82701-2.312-1.5396-4.661t-1.3091-4.73q-0.59647-2.382-1.0754-4.789-0.47891-2.408-0.83911-4.836-0.3602-2.428-0.60082-4.871-0.24062-2.443-0.36107-4.895-0.12045-2.452-0.12045-4.907v-824q0-2.4549 0.12045-4.9068 0.12045-2.4518 0.36107-4.8948 0.24062-2.4431 0.60082-4.8713 0.3602-2.4283 0.83911-4.836 0.47892-2.4076 1.0754-4.7889 0.59648-2.3813 1.3091-4.7304 0.7126-2.3492 1.5396-4.6605t1.7664-4.5793q0.93942-2.268 1.989-4.4871 1.0496-2.2192 2.2068-4.3841 1.1572-2.165 2.4192-4.2706 1.2621-2.1056 2.6259-4.1467t2.8262-4.0129q1.4623-1.9717 3.0197-3.8693 1.5573-1.8977 3.2059-3.7166 1.6485-1.8189 3.3844-3.5547 1.7358-1.7358 3.5547-3.3844t3.7165-3.2059q1.8977-1.5573 3.8694-3.0197 1.9717-1.4623 4.0129-2.8262 2.0411-1.3638 4.1467-2.6258 2.1056-1.2621 4.2705-2.4193 2.165-1.1572 4.3842-2.2068 2.2191-1.0496 4.4871-1.989t4.5793-1.7664q2.3113-0.827 4.6605-1.5396 2.3491-0.7126 4.7304-1.3091 2.3812-0.59648 4.7889-1.0754 2.4077-0.47891 4.8359-0.83911 2.4283-0.3602 4.8713-0.60082 2.4431-0.24062 4.8949-0.36107 2.4519-0.12045 4.9067-0.12045z" fill="#333" fill-rule="evenodd"/>
 <g transform="translate(164 101.38)">
  <g fill-rule="evenodd">
   <path id="d" d="m349 473.96c-192.75 0-349 156.25-349 349h698c0-192.75-156.25-349-349-349z" fill="#f00"/>
   <path d="m129.24 498.73h441.31c-0.606-121.35-99.165-219.53-220.66-219.53-121.49 0-220.05 98.184-220.66 219.53z" fill="#ff0"/>
   <path id="e" d="m184.63 164.37c0-90.778 73.59-164.37 164.37-164.37s164.37 73.59 164.37 164.37-73.59 164.37-164.37 164.37-164.37-73.59-164.37-164.37z" fill="#b8b8b8"/>
  </g>
 </g>
 <path d="m413.84 770.49c0-248.71 201.36-450.32 449.76-450.32 248.39 0 449.76 201.62 449.76 450.32s-201.36 450.33-449.76 450.33c-248.4 0-449.76-201.62-449.76-450.33z" fill="#0f0" fill-opacity=".92157" fill-rule="evenodd" clip-path="url(#b)"/>
</svg>
