<?xml version="1.0" encoding="utf-8"?>
<svg width="1024px" height="1024px" viewBox="0 0 1024 1024" version="1.1" xmlns:xlink="http://www.w3.org/1999/xlink" xmlns="http://www.w3.org/2000/svg">
  <defs>
    <path d="M0 0L1157 0L1157 1157L0 1157L0 0L0 0L0 0Z" id="path_1" />
    <rect width="1024" height="1024" id="artboard_1" />
    <clipPath id="clip_1">
      <use xlink:href="#artboard_1" clip-rule="evenodd" />
    </clipPath>
    <clipPath id="mask_1">
      <use xlink:href="#path_1" />
    </clipPath>
  </defs>
  <g id="Artboard" clip-path="url(#clip_1)">
    <use xlink:href="#artboard_1" stroke="none" fill="#FFFFFF" fill-opacity="0" />
    <g id="svg-2" transform="translate(-66 -66)">
      <g id="chat_icon">
        <g id="Mask-group">
          <path d="M0 0L1157 0L1157 1157L0 1157L0 0L0 0L0 0Z" id="artboard_1" fill="none" fill-rule="evenodd" stroke="none" />
          <g id="Mask-group#1">
            <path d="M0 0L1157 0L1157 1157L0 1157L0 0L0 0L0 0Z" id="path_1#1" fill="none" stroke="none" />
            <g id="Mask-group">
              <path d="M0 0L1157 0L1157 1157L0 1157L0 0L0 0L0 0Z" id="path_1" fill="none" stroke="none" />
              <g clip-path="url(#mask_1)">
                <g id="Group">
                  <g id="Group">
                    <g id="Artboard">
                      <path d="M0 0L1157 0L1157 1157L0 1157L0 0L0 0L0 0Z" id="artboard_1#1" fill="#FFFFFF" fill-opacity="0" fill-rule="evenodd" stroke="none" />
                      <path d="M967.29 1006.78L750.026 948.873C749.106 948.626 748.195 948.351 747.293 948.048C746.391 947.742 745.498 947.41 744.616 947.048C743.737 946.685 742.868 946.294 742.012 945.875C741.156 945.459 740.315 945.011 739.49 944.538C738.662 944.065 737.852 943.566 737.057 943.039C736.263 942.515 735.486 941.962 734.728 941.386C733.967 940.81 733.229 940.211 732.509 939.586C731.789 938.964 731.09 938.316 730.414 937.648C729.735 936.977 729.079 936.288 728.447 935.575C727.814 934.863 727.205 934.13 726.619 933.38C726.032 932.629 725.472 931.858 724.937 931.071C724.402 930.284 723.891 929.479 723.407 928.659C722.924 927.836 722.469 927.001 722.04 926.152C721.61 925.301 721.209 924.437 720.836 923.561C720.461 922.684 720.116 921.797 719.803 920.897C719.486 920 719.201 919.089 718.944 918.174C718.687 917.256 718.461 916.331 718.263 915.4C718.067 914.467 717.9 913.531 717.764 912.587C717.628 911.643 717.522 910.697 717.448 909.749C717.373 908.797 717.329 907.849 717.316 906.895C717.304 905.941 717.322 904.989 717.37 904.038C717.419 903.087 717.499 902.138 717.609 901.192C717.717 900.246 717.859 899.305 718.031 898.366C718.201 897.43 718.404 896.5 718.635 895.577C718.867 894.651 719.129 893.736 719.42 892.831C719.71 891.923 720.031 891.026 720.381 890.139C720.731 889.254 721.106 888.38 721.512 887.516C721.919 886.655 722.353 885.809 722.813 884.973C723.274 884.14 723.762 883.323 724.276 882.521C724.791 881.718 725.328 880.934 725.894 880.165C726.459 879.399 727.048 878.651 727.66 877.923C728.274 877.193 728.912 876.486 729.57 875.797L891.309 707.119C891.987 706.412 892.689 705.728 893.414 705.065C894.139 704.404 894.885 703.769 895.651 703.157C896.42 702.545 897.207 701.959 898.011 701.401C898.819 700.841 899.644 700.311 900.485 699.807C901.326 699.303 902.184 698.827 903.059 698.38C903.933 697.935 904.82 697.519 905.722 697.131C906.622 696.742 907.537 696.385 908.461 696.058C909.386 695.734 910.322 695.439 911.268 695.174C912.212 694.912 913.166 694.68 914.125 694.48C915.086 694.279 916.053 694.109 917.025 693.976C917.997 693.84 918.971 693.737 919.951 693.667C920.928 693.595 921.907 693.559 922.89 693.554C923.872 693.549 924.851 693.575 925.831 693.636C926.811 693.698 927.787 693.791 928.759 693.917C929.731 694.043 930.701 694.199 931.662 694.39C932.626 694.58 933.58 694.804 934.529 695.058C935.475 695.31 936.414 695.596 937.342 695.914C938.27 696.231 939.188 696.578 940.093 696.956C940.998 697.334 941.89 697.742 942.769 698.18C943.649 698.617 944.51 699.085 945.356 699.578C946.204 700.074 947.035 700.596 947.845 701.149C948.657 701.699 949.452 702.275 950.223 702.88C950.997 703.484 951.75 704.114 952.481 704.767C953.213 705.42 953.923 706.099 954.609 706.798C955.293 707.5 955.957 708.225 956.594 708.97C957.232 709.714 957.844 710.48 958.433 711.266C959.019 712.053 959.577 712.858 960.112 713.683C960.644 714.506 961.15 715.347 961.626 716.206C962.102 717.062 962.549 717.936 962.968 718.823C963.387 719.71 963.775 720.61 964.133 721.523C964.493 722.438 964.819 723.361 965.115 724.297C965.413 725.233 965.678 726.176 965.912 727.13L1021.44 953.717C1021.66 954.643 1021.86 955.571 1022.03 956.507C1022.19 957.445 1022.33 958.386 1022.43 959.332C1022.54 960.276 1022.62 961.225 1022.66 962.174C1022.7 963.125 1022.71 964.076 1022.7 965.025C1022.68 965.976 1022.63 966.927 1022.55 967.874C1022.47 968.822 1022.36 969.769 1022.22 970.707C1022.08 971.648 1021.91 972.584 1021.71 973.515C1021.51 974.443 1021.28 975.366 1021.02 976.281C1020.76 977.194 1020.47 978.102 1020.15 978.996C1019.83 979.894 1019.48 980.778 1019.1 981.652C1018.73 982.524 1018.32 983.385 1017.89 984.231C1017.46 985.08 1017 985.913 1016.51 986.73C1016.03 987.548 1015.51 988.347 1014.98 989.132C1014.44 989.916 1013.88 990.685 1013.29 991.43C1012.7 992.178 1012.09 992.906 1011.45 993.616C1010.82 994.323 1010.16 995.009 1009.48 995.675C1008.8 996.341 1008.1 996.986 1007.38 997.606C1006.66 998.226 1005.92 998.822 1005.16 999.396C1004.4 999.966 1003.62 1000.51 1002.83 1001.04C1002.03 1001.56 1001.22 1002.05 1000.4 1002.52C999.568 1003 998.727 1003.44 997.871 1003.85C997.015 1004.27 996.146 1004.65 995.266 1005.01C994.384 1005.37 993.495 1005.7 992.592 1006C991.69 1006.3 990.777 1006.58 989.859 1006.82C988.939 1007.06 988.011 1007.27 987.077 1007.45C986.144 1007.64 985.206 1007.79 984.262 1007.91C983.318 1008.03 982.372 1008.12 981.423 1008.18C980.472 1008.24 979.523 1008.27 978.572 1008.27C977.621 1008.27 976.672 1008.23 975.721 1008.17C974.772 1008.11 973.826 1008.02 972.885 1007.89C971.941 1007.77 971.003 1007.61 970.069 1007.43C969.136 1007.24 968.211 1007.03 967.29 1006.78L967.29 1006.78L967.29 1006.78L967.29 1006.78L967.29 1006.78Z" id="Triangle-Copy-2" fill="#333333" fill-rule="evenodd" stroke="none" />
                      <path d="M214.678 600.532C214.678 382.44 399.065 205.639 626.521 205.639C853.974 205.639 1038.36 382.44 1038.36 600.532C1038.36 818.626 853.974 995.426 626.521 995.426C399.065 995.426 214.678 818.626 214.678 600.532L214.678 600.532L214.678 600.532L214.678 600.532Z" id="Ellipse-Copy-2" fill="#333333" fill-rule="evenodd" stroke="none" />
                      <path d="M143.495 525.959C143.495 307.867 327.884 131.066 555.337 131.066C782.793 131.066 967.18 307.867 967.18 525.959C967.18 744.054 782.793 920.854 555.337 920.854C327.884 920.854 143.495 744.054 143.495 525.959L143.495 525.959L143.495 525.959L143.495 525.959Z" id="Ellipse-Copy" fill="#B8B8B8" fill-rule="evenodd" stroke="none" />
                      <path d="M132.553 885.291L207.62 646.63C207.903 645.73 208.214 644.84 208.553 643.961C208.893 643.084 209.26 642.218 209.655 641.362C210.051 640.508 210.473 639.665 210.922 638.837C211.371 638.009 211.846 637.196 212.348 636.399C212.849 635.602 213.375 634.821 213.926 634.057C214.478 633.294 215.053 632.548 215.653 631.823C216.251 631.095 216.873 630.388 217.518 629.702C218.162 629.013 218.828 628.349 219.515 627.704C220.202 627.061 220.91 626.439 221.637 625.84C222.363 625.241 223.109 624.665 223.872 624.115C224.636 623.564 225.417 623.037 226.215 622.536C227.012 622.035 227.825 621.562 228.653 621.112C229.482 620.662 230.323 620.24 231.178 619.847C232.033 619.451 232.9 619.083 233.779 618.744C234.658 618.404 235.546 618.093 236.445 617.81C237.343 617.527 238.25 617.276 239.165 617.052C240.08 616.828 241.001 616.633 241.929 616.468C242.856 616.304 243.788 616.167 244.723 616.062C245.66 615.957 246.598 615.882 247.539 615.836C248.48 615.792 249.421 615.777 250.364 615.792C251.305 615.805 252.245 615.851 253.184 615.926C254.123 616.003 255.059 616.108 255.991 616.242C256.923 616.378 257.849 616.543 258.772 616.738C259.693 616.934 260.608 617.157 261.516 617.412C262.423 617.664 263.32 617.947 264.21 618.258C265.097 618.569 265.976 618.908 266.845 619.276C267.712 619.644 268.565 620.039 269.409 620.461C270.25 620.883 271.077 621.333 271.89 621.808C272.705 622.281 273.502 622.783 274.281 623.31C275.063 623.837 275.826 624.387 276.572 624.963C277.318 625.539 278.045 626.138 278.752 626.758C279.459 627.38 280.146 628.025 280.812 628.691L444.409 792.288C445.075 792.954 445.72 793.641 446.342 794.348C446.965 795.055 447.561 795.783 448.137 796.528C448.713 797.274 449.263 798.037 449.79 798.819C450.317 799.598 450.819 800.398 451.294 801.21C451.767 802.023 452.217 802.851 452.639 803.691C453.061 804.535 453.457 805.388 453.824 806.257C454.192 807.124 454.531 808.003 454.842 808.89C455.154 809.78 455.436 810.677 455.688 811.585C455.943 812.492 456.167 813.408 456.362 814.328C456.557 815.251 456.722 816.177 456.858 817.11C456.994 818.041 457.1 818.977 457.174 819.918C457.249 820.856 457.295 821.795 457.311 822.736C457.324 823.679 457.311 824.62 457.264 825.561C457.218 826.502 457.144 827.441 457.038 828.377C456.933 829.312 456.799 830.243 456.632 831.171C456.467 832.1 456.272 833.02 456.048 833.935C455.825 834.851 455.573 835.758 455.29 836.656C455.007 837.555 454.696 838.443 454.357 839.322C454.017 840.201 453.649 841.068 453.254 841.921C452.86 842.777 452.438 843.618 451.989 844.449C451.541 845.276 451.065 846.089 450.564 846.886C450.063 847.683 449.538 848.465 448.985 849.228C448.435 849.992 447.859 850.737 447.26 851.465C446.661 852.19 446.039 852.897 445.396 853.586C444.751 854.273 444.087 854.939 443.398 855.581C442.712 856.227 442.005 856.849 441.28 857.448C440.552 858.047 439.807 858.623 439.043 859.173C438.279 859.726 437.498 860.253 436.701 860.752C435.904 861.253 435.091 861.729 434.263 862.179C433.435 862.629 432.592 863.051 431.738 863.447C430.882 863.84 430.016 864.208 429.139 864.547C428.26 864.886 427.37 865.197 426.473 865.48L187.809 940.546C186.854 940.847 185.89 941.115 184.916 941.349C183.943 941.585 182.963 941.786 181.976 941.953C180.989 942.12 179.997 942.256 179.002 942.354C178.006 942.454 177.007 942.521 176.006 942.554C175.006 942.585 174.005 942.585 173.005 942.549C172.004 942.513 171.006 942.441 170.01 942.339C169.015 942.233 168.024 942.097 167.037 941.925C166.051 941.755 165.072 941.549 164.099 941.31C163.127 941.071 162.164 940.801 161.21 940.498C160.256 940.194 159.313 939.857 158.382 939.49C157.451 939.119 156.534 938.721 155.631 938.292C154.727 937.86 153.839 937.399 152.967 936.908C152.094 936.417 151.24 935.895 150.403 935.348C149.566 934.797 148.749 934.219 147.951 933.615C147.153 933.01 146.378 932.378 145.624 931.72C144.869 931.062 144.137 930.378 143.429 929.671C142.721 928.964 142.039 928.231 141.381 927.478C140.723 926.724 140.091 925.948 139.486 925.151C138.88 924.351 138.303 923.533 137.754 922.698C137.204 921.86 136.684 921.006 136.193 920.134C135.701 919.26 135.24 918.373 134.81 917.471C134.379 916.566 133.98 915.648 133.612 914.717C133.244 913.786 132.907 912.845 132.603 911.891C132.299 910.938 132.028 909.973 131.79 909.001C131.552 908.03 131.346 907.05 131.175 906.063C131.004 905.075 130.866 904.086 130.762 903.09C130.658 902.095 130.588 901.095 130.552 900.095C130.516 899.095 130.514 898.095 130.546 897.095C130.579 896.095 130.645 895.094 130.745 894.099C130.845 893.104 130.98 892.112 131.148 891.125C131.315 890.137 131.517 889.158 131.751 888.183C131.986 887.211 132.253 886.247 132.553 885.291L132.553 885.291L132.553 885.291L132.553 885.291Z" id="Triangle-Copy" fill="#B8B8B8" fill-rule="evenodd" stroke="none" />
                    </g>
                  </g>
                </g>
              </g>
            </g>
          </g>
        </g>
      </g>
    </g>
  </g>
</svg>