<?xml version="1.0" encoding="utf-8"?>
<svg width="45px" height="45px" viewBox="0 0 45 45" version="1.1" xmlns:xlink="http://www.w3.org/1999/xlink" xmlns="http://www.w3.org/2000/svg">
  <defs>
    <path d="M0 0L45 0L45 45L0 45L0 0Z" id="path_1" />
    <clipPath id="mask_1">
      <use xlink:href="#path_1" />
    </clipPath>
  </defs>
  <g id="Mask-group">
    <path d="M0 0L45 0L45 45L0 45L0 0Z" id="artboard_1" fill="none" fill-rule="evenodd" stroke="none" />
    <g clip-path="url(#mask_1)">
      <g id="Artboard">
        <path d="M0 0L45 0L45 45L0 45L0 0Z" id="artboard_1" fill="#FFFFFF" fill-opacity="0" fill-rule="evenodd" stroke="none" />
        <path d="M37.6215 39.1575L29.1713 36.9052C29.1355 36.8956 29.1001 36.8849 29.065 36.8731C29.0299 36.8612 28.9952 36.8483 28.9609 36.8342C28.9267 36.8201 28.8929 36.8049 28.8596 36.7886C28.8263 36.7724 28.7936 36.755 28.7615 36.7366C28.7293 36.7182 28.6978 36.6988 28.6669 36.6783C28.636 36.6579 28.6058 36.6364 28.5763 36.614C28.5467 36.5916 28.518 36.5683 28.49 36.544C28.462 36.5198 28.4348 36.4946 28.4085 36.4686C28.3821 36.4425 28.3566 36.4157 28.332 36.388C28.3074 36.3603 28.2837 36.3318 28.2609 36.3026C28.2381 36.2734 28.2163 36.2434 28.1955 36.2128C28.1747 36.1822 28.1548 36.1509 28.136 36.119C28.1172 36.087 28.0995 36.0545 28.0828 36.0215C28.0661 35.9884 28.0505 35.9548 28.036 35.9207C28.0214 35.8866 28.008 35.8521 27.9958 35.8171C27.9835 35.7822 27.9724 35.7468 27.9624 35.7112C27.9524 35.6755 27.9436 35.6395 27.9359 35.6033C27.9283 35.567 27.9218 35.5306 27.9165 35.4939C27.9112 35.4572 27.9071 35.4204 27.9042 35.3835C27.9013 35.3465 27.8996 35.3096 27.8991 35.2725C27.8986 35.2354 27.8993 35.1984 27.9012 35.1614C27.9031 35.1244 27.9062 35.0875 27.9105 35.0507C27.9147 35.0139 27.9202 34.9773 27.9269 34.9408C27.9335 34.9044 27.9414 34.8682 27.9504 34.8323C27.9594 34.7963 27.9696 34.7607 27.9809 34.7255C27.9922 34.6902 28.0047 34.6553 28.0183 34.6208C28.0319 34.5864 28.0465 34.5524 28.0623 34.5188C28.0781 34.4853 28.095 34.4524 28.1129 34.4199C28.1308 34.3875 28.1498 34.3557 28.1698 34.3245C28.1898 34.2933 28.2107 34.2628 28.2327 34.2329C28.2547 34.2031 28.2776 34.174 28.3014 34.1457C28.3253 34.1173 28.3501 34.0898 28.3757 34.063L34.6663 27.5025C34.6927 27.475 34.72 27.4484 34.7482 27.4226C34.7764 27.3969 34.8054 27.3722 34.8352 27.3484C34.8651 27.3246 34.8957 27.3018 34.927 27.2801C34.9584 27.2583 34.9905 27.2377 35.0232 27.2181C35.0559 27.1985 35.0893 27.18 35.1233 27.1626C35.1573 27.1453 35.1918 27.1291 35.2269 27.114C35.2619 27.0989 35.2975 27.085 35.3334 27.0723C35.3694 27.0597 35.4058 27.0482 35.4426 27.0379C35.4793 27.0277 35.5164 27.0187 35.5537 27.0109C35.5911 27.0031 35.6287 26.9965 35.6665 26.9913C35.7043 26.986 35.7422 26.982 35.7803 26.9793C35.8183 26.9765 35.8564 26.9751 35.8946 26.9749C35.9328 26.9747 35.9709 26.9757 36.009 26.9781C36.0471 26.9805 36.0851 26.9841 36.1229 26.989C36.1607 26.9939 36.1984 27 36.2358 27.0074C36.2733 27.0148 36.3104 27.0235 36.3473 27.0334C36.3841 27.0432 36.4206 27.0543 36.4567 27.0667C36.4928 27.079 36.5285 27.0925 36.5637 27.1072C36.5989 27.1219 36.6336 27.1378 36.6678 27.1548C36.702 27.1718 36.7355 27.19 36.7684 27.2092C36.8014 27.2285 36.8337 27.2488 36.8652 27.2703C36.8968 27.2917 36.9277 27.3141 36.9577 27.3376C36.9878 27.3611 37.0171 27.3856 37.0455 27.411C37.074 27.4364 37.1016 27.4628 37.1283 27.49C37.1549 27.5173 37.1807 27.5455 37.2055 27.5745C37.2303 27.6034 37.2541 27.6332 37.277 27.6638C37.2998 27.6944 37.3215 27.7257 37.3423 27.7578C37.363 27.7898 37.3827 27.8225 37.4012 27.8559C37.4197 27.8892 37.4371 27.9232 37.4534 27.9577C37.4697 27.9922 37.4848 28.0272 37.4987 28.0627C37.5127 28.0983 37.5254 28.1342 37.5369 28.1706C37.5485 28.207 37.5588 28.2437 37.5679 28.2808L39.7275 37.0936C39.7363 37.1296 39.744 37.1657 39.7504 37.2021C39.7569 37.2386 39.7621 37.2752 39.7662 37.312C39.7703 37.3487 39.7733 37.3856 39.7749 37.4225C39.7766 37.4595 39.7771 37.4965 39.7764 37.5334C39.7758 37.5704 39.7739 37.6074 39.7708 37.6442C39.7677 37.6811 39.7635 37.7179 39.758 37.7544C39.7525 37.791 39.7459 37.8274 39.7381 37.8636C39.7303 37.8997 39.7213 37.9356 39.7111 37.9712C39.701 38.0067 39.6897 38.042 39.6773 38.0768C39.6649 38.1117 39.6514 38.1461 39.6367 38.1801C39.6221 38.214 39.6064 38.2475 39.5895 38.2804C39.5727 38.3134 39.5549 38.3458 39.5359 38.3776C39.517 38.4094 39.4971 38.4405 39.4762 38.471C39.4553 38.5015 39.4334 38.5314 39.4105 38.5604C39.3877 38.5895 39.3639 38.6178 39.3392 38.6454C39.3145 38.6729 39.2889 38.6996 39.2625 38.7255C39.2361 38.7514 39.2088 38.7765 39.1808 38.8006C39.1528 38.8247 39.124 38.8479 39.0945 38.8702C39.0649 38.8924 39.0347 38.9137 39.0037 38.9341C38.9728 38.9544 38.9413 38.9736 38.9091 38.9919C38.8769 39.0102 38.8442 39.0274 38.8109 39.0435C38.7776 39.0597 38.7438 39.0747 38.7096 39.0887C38.6753 39.1026 38.6407 39.1155 38.6056 39.1272C38.5705 39.1389 38.535 39.1495 38.4993 39.1589C38.4635 39.1683 38.4274 39.1765 38.3911 39.1836C38.3548 39.1907 38.3183 39.1966 38.2816 39.2013C38.2449 39.2061 38.2081 39.2096 38.1712 39.2119C38.1342 39.2143 38.0973 39.2154 38.0603 39.2154C38.0233 39.2153 37.9864 39.214 37.9494 39.2116C37.9125 39.2092 37.8757 39.2055 37.8391 39.2007C37.8024 39.1959 37.7659 39.1898 37.7296 39.1826C37.6933 39.1754 37.6573 39.1671 37.6215 39.1575L37.6215 39.1575L37.6215 39.1575Z" id="Triangle-Copy-2" fill="#333333" fill-rule="evenodd" stroke="none" />
        <path d="M8.34961 23.3569C8.34961 14.8745 15.5211 7.99805 24.3677 7.99805C33.2142 7.99805 40.3857 14.8745 40.3857 23.3569C40.3857 31.8394 33.2142 38.7158 24.3677 38.7158C15.5211 38.7158 8.34961 31.8394 8.34961 23.3569L8.34961 23.3569Z" id="Ellipse-Copy-2" fill="#333333" fill-rule="evenodd" stroke="none" />
        <path d="M5.58105 20.4565C5.58105 11.9741 12.7526 5.09766 21.5991 5.09766C30.4457 5.09766 37.6172 11.9741 37.6172 20.4565C37.6172 28.939 30.4457 35.8154 21.5991 35.8154C12.7526 35.8154 5.58105 28.939 5.58105 20.4565L5.58105 20.4565Z" id="Ellipse-Copy" fill="#B8B8B8" fill-rule="evenodd" stroke="none" />
        <path d="M5.15548 34.4322L8.07512 25.1498C8.0861 25.1148 8.0982 25.0802 8.11141 25.046C8.1246 25.0119 8.13888 24.9782 8.15426 24.9449C8.16964 24.9117 8.18606 24.8789 8.20352 24.8467C8.22099 24.8145 8.23947 24.7829 8.25898 24.7519C8.27847 24.7209 8.29893 24.6905 8.32038 24.6608C8.34182 24.6311 8.3642 24.6021 8.38752 24.5739C8.41081 24.5456 8.435 24.5181 8.46008 24.4914C8.48513 24.4646 8.51101 24.4388 8.53773 24.4137C8.56448 24.3887 8.59199 24.3645 8.62026 24.3412C8.64853 24.3179 8.67752 24.2955 8.70722 24.2741C8.73693 24.2527 8.7673 24.2322 8.79832 24.2127C8.82935 24.1932 8.86096 24.1748 8.89316 24.1573C8.92538 24.1398 8.95812 24.1234 8.99138 24.1081C9.02463 24.0927 9.05835 24.0784 9.09254 24.0652C9.1267 24.052 9.16125 24.0399 9.19621 24.0289C9.23116 24.0179 9.26643 24.0081 9.30202 23.9994C9.33759 23.9907 9.37342 23.9831 9.40952 23.9767C9.44558 23.9703 9.48181 23.965 9.51819 23.9609C9.55461 23.9568 9.59111 23.9539 9.6277 23.9521C9.6643 23.9504 9.70092 23.9498 9.73757 23.9504C9.77419 23.9509 9.81075 23.9527 9.84725 23.9556C9.88379 23.9586 9.92017 23.9627 9.95642 23.9679C9.99269 23.9732 10.0287 23.9796 10.0646 23.9872C10.1004 23.9948 10.136 24.0035 10.1713 24.0134C10.2066 24.0232 10.2415 24.0342 10.2761 24.0463C10.3106 24.0584 10.3448 24.0716 10.3786 24.0859C10.4123 24.1002 10.4455 24.1156 10.4783 24.132C10.511 24.1484 10.5432 24.1659 10.5748 24.1844C10.6065 24.2028 10.6375 24.2223 10.6678 24.2428C10.6982 24.2633 10.7279 24.2847 10.7569 24.3071C10.7859 24.3295 10.8142 24.3528 10.8417 24.3769C10.8692 24.4011 10.8959 24.4262 10.9218 24.4521L17.2847 30.815C17.3106 30.8409 17.3357 30.8676 17.3599 30.8951C17.3841 30.9226 17.4073 30.9509 17.4297 30.9799C17.4521 31.0089 17.4735 31.0386 17.494 31.069C17.5145 31.0993 17.534 31.1304 17.5525 31.162C17.5709 31.1936 17.5884 31.2258 17.6048 31.2585C17.6212 31.2913 17.6366 31.3245 17.6509 31.3583C17.6652 31.392 17.6784 31.4262 17.6905 31.4607C17.7026 31.4953 17.7136 31.5302 17.7234 31.5655C17.7333 31.6008 17.742 31.6364 17.7496 31.6722C17.7572 31.7081 17.7636 31.7441 17.7689 31.7804C17.7742 31.8166 17.7783 31.853 17.7812 31.8896C17.7841 31.9261 17.7859 31.9626 17.7865 31.9992C17.787 32.0359 17.7865 32.0725 17.7847 32.1091C17.7829 32.1457 17.78 32.1822 17.7759 32.2186C17.7718 32.255 17.7666 32.2912 17.7601 32.3273C17.7537 32.3634 17.7461 32.3992 17.7374 32.4348C17.7287 32.4704 17.7189 32.5057 17.7079 32.5406C17.6969 32.5756 17.6848 32.6101 17.6716 32.6443C17.6584 32.6785 17.6441 32.7122 17.6287 32.7454C17.6134 32.7787 17.597 32.8114 17.5795 32.8437C17.5621 32.8759 17.5436 32.9075 17.5241 32.9385C17.5046 32.9695 17.4842 32.9999 17.4627 33.0296C17.4413 33.0593 17.4189 33.0883 17.3956 33.1166C17.3723 33.1448 17.3481 33.1723 17.3231 33.1991C17.298 33.2258 17.2722 33.2517 17.2454 33.2767C17.2187 33.3018 17.1912 33.326 17.163 33.3493C17.1347 33.3726 17.1057 33.395 17.076 33.4164C17.0463 33.4379 17.0159 33.4584 16.9849 33.4778C16.9539 33.4973 16.9223 33.5158 16.8901 33.5333C16.8579 33.5508 16.8251 33.5672 16.7919 33.5826C16.7586 33.5979 16.7249 33.6122 16.6908 33.6254C16.6566 33.6386 16.622 33.6507 16.5871 33.6617L7.30458 36.5813C7.26743 36.593 7.22993 36.6034 7.19208 36.6125C7.15423 36.6217 7.11611 36.6295 7.07773 36.636C7.03933 36.6425 7.00076 36.6478 6.96203 36.6516C6.9233 36.6555 6.88446 36.6581 6.84553 36.6594C6.80662 36.6606 6.76771 36.6606 6.72881 36.6592C6.68987 36.6578 6.65104 36.655 6.61231 36.651C6.57361 36.6469 6.53507 36.6416 6.49669 36.6349C6.45834 36.6283 6.42025 36.6203 6.38243 36.611C6.34461 36.6017 6.30715 36.5912 6.27006 36.5794C6.23294 36.5676 6.19628 36.5545 6.16007 36.5402C6.12386 36.5258 6.08819 36.5103 6.05306 36.4936C6.0179 36.4768 5.98336 36.4589 5.94944 36.4398C5.91551 36.4207 5.88227 36.4004 5.84973 36.3791C5.81718 36.3577 5.78539 36.3352 5.75436 36.3117C5.72334 36.2882 5.69316 36.2636 5.66384 36.238C5.63448 36.2124 5.60603 36.1858 5.5785 36.1583C5.55096 36.1308 5.5244 36.1023 5.49882 36.073C5.47322 36.0437 5.44865 36.0135 5.42513 35.9825C5.40157 35.9514 5.37912 35.9196 5.35776 35.8871C5.33637 35.8545 5.31613 35.8213 5.29703 35.7874C5.27792 35.7534 5.25999 35.7189 5.24324 35.6838C5.22651 35.6486 5.21098 35.6129 5.19665 35.5767C5.18233 35.5405 5.16925 35.5039 5.15741 35.4668C5.1456 35.4297 5.13507 35.3922 5.12581 35.3544C5.11653 35.3166 5.10854 35.2785 5.10186 35.2401C5.09521 35.2017 5.08987 35.1632 5.08582 35.1245C5.08178 35.0858 5.07906 35.0469 5.07765 35.008C5.07624 34.9691 5.07617 34.9302 5.07743 34.8913C5.07869 34.8524 5.08127 34.8135 5.08517 34.7748C5.08906 34.7361 5.09428 34.6975 5.10081 34.6591C5.10734 34.6207 5.11517 34.5826 5.12428 34.5447C5.13342 34.5069 5.14382 34.4694 5.15548 34.4322L5.15548 34.4322Z" id="Triangle-Copy" fill="#B8B8B8" fill-rule="evenodd" stroke="none" />
      </g>
    </g>
  </g>
</svg>