<?xml version="1.0" encoding="utf-8"?>
<svg width="42px" height="42px" viewBox="0 0 42 42" version="1.1" xmlns:xlink="http://www.w3.org/1999/xlink" xmlns="http://www.w3.org/2000/svg">
  <defs>
    <path d="M0 0L42 0L42 42L0 42L0 0Z" id="path_1" />
    <clipPath id="mask_1">
      <use xlink:href="#path_1" />
    </clipPath>
  </defs>
  <g id="bitchess.draw">
    <g id="Mask-group">
      <path d="M0 0L42 0L42 42L0 42L0 0Z" id="artboard_1" fill="none" fill-rule="evenodd" stroke="none" />
      <g clip-path="url(#mask_1)">
        <g id="Artboard">
          <path d="M0 0L42 0L42 42L0 42L0 0Z" id="artboard_1" fill="#FFFFFF" fill-opacity="0" fill-rule="evenodd" stroke="none" />
          <path d="M10.0078 11.6484L32.0332 11.6484C32.0977 11.6484 32.1621 11.65 32.2264 11.6532C32.2908 11.6563 32.355 11.6611 32.4192 11.6674C32.4833 11.6737 32.5472 11.6816 32.611 11.6911C32.6747 11.7005 32.7382 11.7115 32.8014 11.7241C32.8646 11.7367 32.9275 11.7508 32.99 11.7664C33.0525 11.7821 33.1146 11.7993 33.1762 11.818C33.2379 11.8367 33.2991 11.8569 33.3597 11.8786C33.4204 11.9003 33.4805 11.9235 33.54 11.9481C33.5996 11.9728 33.6585 11.9989 33.7167 12.0265C33.775 12.054 33.8325 12.083 33.8894 12.1133C33.9462 12.1437 34.0022 12.1755 34.0575 12.2086C34.1128 12.2417 34.1672 12.2762 34.2208 12.312C34.2744 12.3478 34.327 12.3849 34.3788 12.4233C34.4305 12.4617 34.4813 12.5013 34.5311 12.5422C34.581 12.5831 34.6297 12.6252 34.6775 12.6684C34.7252 12.7117 34.7719 12.7561 34.8174 12.8017C34.863 12.8473 34.9074 12.8939 34.9507 12.9417C34.994 12.9894 35.0361 13.0382 35.0769 13.088C35.1178 13.1378 35.1574 13.1886 35.1958 13.2403C35.2342 13.2921 35.2713 13.3448 35.3071 13.3984C35.3429 13.4519 35.3774 13.5064 35.4105 13.5617C35.4437 13.6169 35.4754 13.673 35.5058 13.7298C35.5361 13.7866 35.5651 13.8442 35.5927 13.9024C35.6202 13.9607 35.6463 14.0196 35.671 14.0791C35.6956 14.1386 35.7188 14.1987 35.7405 14.2594C35.7622 14.3201 35.7824 14.3813 35.8011 14.4429C35.8198 14.5046 35.837 14.5667 35.8527 14.6292C35.8684 14.6917 35.8825 14.7545 35.895 14.8178C35.9076 14.8809 35.9186 14.9444 35.9281 15.0082C35.9375 15.0719 35.9454 15.1358 35.9518 15.1999C35.9581 15.2641 35.9628 15.3283 35.9659 15.3927C35.9691 15.4571 35.9707 15.5214 35.9707 15.5859L35.9707 15.627C35.9707 15.6914 35.9691 15.7558 35.9659 15.8202C35.9628 15.8845 35.9581 15.9488 35.9518 16.013C35.9454 16.0771 35.9375 16.141 35.9281 16.2047C35.9186 16.2685 35.9076 16.3319 35.895 16.3951C35.8825 16.4584 35.8683 16.5212 35.8527 16.5837C35.837 16.6462 35.8198 16.7083 35.8011 16.77C35.7824 16.8316 35.7622 16.8928 35.7405 16.9535C35.7188 17.0142 35.6956 17.0743 35.671 17.1338C35.6463 17.1933 35.6202 17.2522 35.5927 17.3105C35.5651 17.3687 35.5361 17.4263 35.5058 17.4831C35.4754 17.5399 35.4437 17.596 35.4105 17.6512C35.3774 17.7065 35.3429 17.761 35.3071 17.8145C35.2713 17.8681 35.2342 17.9208 35.1958 17.9725C35.1574 18.0243 35.1178 18.0751 35.0769 18.1249C35.0361 18.1747 34.994 18.2235 34.9507 18.2712C34.9074 18.319 34.863 18.3656 34.8174 18.4112C34.7719 18.4568 34.7252 18.5012 34.6775 18.5445C34.6297 18.5877 34.581 18.6298 34.5311 18.6707C34.4813 18.7116 34.4305 18.7512 34.3788 18.7896C34.327 18.828 34.2743 18.8651 34.2208 18.9009C34.1672 18.9367 34.1128 18.9711 34.0575 19.0043C34.0022 19.0374 33.9462 19.0692 33.8894 19.0995C33.8325 19.1299 33.775 19.1588 33.7167 19.1864C33.6585 19.214 33.5996 19.2401 33.54 19.2647C33.4805 19.2894 33.4204 19.3126 33.3597 19.3343C33.2991 19.356 33.2379 19.3762 33.1762 19.3949C33.1146 19.4136 33.0525 19.4308 32.99 19.4465C32.9275 19.4621 32.8646 19.4762 32.8014 19.4888C32.7382 19.5014 32.6747 19.5124 32.611 19.5218C32.5472 19.5313 32.4833 19.5392 32.4192 19.5455C32.355 19.5518 32.2908 19.5566 32.2264 19.5597C32.1621 19.5629 32.0977 19.5645 32.0332 19.5645L10.0078 19.5645C9.94332 19.5645 9.87893 19.5629 9.81459 19.5597C9.75022 19.5566 9.68596 19.5518 9.62181 19.5455C9.55769 19.5392 9.49376 19.5313 9.43003 19.5218C9.36629 19.5124 9.30281 19.5014 9.23959 19.4888C9.1764 19.4762 9.11355 19.4621 9.05104 19.4465C8.98853 19.4308 8.92645 19.4136 8.86479 19.3949C8.80313 19.3762 8.74196 19.356 8.68129 19.3343C8.62061 19.3126 8.56051 19.2894 8.50098 19.2647C8.44143 19.2401 8.38253 19.214 8.32429 19.1864C8.26604 19.1588 8.2085 19.1299 8.15165 19.0995C8.09483 19.0692 8.03879 19.0374 7.98353 19.0043C7.92824 18.9711 7.87381 18.9367 7.82024 18.9009C7.76665 18.8651 7.71397 18.828 7.66221 18.7896C7.61048 18.7512 7.5597 18.7116 7.50988 18.6707C7.46006 18.6298 7.41128 18.5877 7.36353 18.5445C7.31579 18.5012 7.26913 18.4568 7.22355 18.4112C7.17799 18.3656 7.13357 18.319 7.09029 18.2712C7.04703 18.2235 7.00496 18.1747 6.96408 18.1249C6.92321 18.0751 6.88357 18.0243 6.84518 17.9725C6.80679 17.9208 6.7697 17.8681 6.7339 17.8145C6.69808 17.761 6.66362 17.7065 6.6305 17.6512C6.59736 17.596 6.5656 17.5399 6.53522 17.4831C6.50487 17.4263 6.47592 17.3687 6.44835 17.3105C6.42079 17.2522 6.39468 17.1933 6.37001 17.1338C6.34538 17.0743 6.3222 17.0142 6.30049 16.9535C6.27878 16.8928 6.25857 16.8316 6.23987 16.77C6.22117 16.7083 6.20398 16.6462 6.18831 16.5837C6.17265 16.5212 6.15854 16.4584 6.14599 16.3951C6.13341 16.3319 6.12239 16.2685 6.11293 16.2047C6.10347 16.141 6.09558 16.0771 6.08926 16.013C6.08295 15.9488 6.07822 15.8845 6.07507 15.8202C6.0719 15.7558 6.07031 15.6914 6.07031 15.627L6.07031 15.5859C6.07031 15.5214 6.0719 15.4571 6.07507 15.3927C6.07822 15.3283 6.08295 15.2641 6.08926 15.1999C6.09558 15.1358 6.10347 15.0719 6.11293 15.0082C6.12239 14.9444 6.13341 14.8809 6.14599 14.8178C6.15854 14.7545 6.17265 14.6917 6.18831 14.6292C6.20398 14.5667 6.22117 14.5046 6.23987 14.4429C6.25857 14.3813 6.27878 14.3201 6.30049 14.2594C6.3222 14.1987 6.34538 14.1386 6.37001 14.0791C6.39468 14.0196 6.42079 13.9607 6.44835 13.9024C6.47592 13.8442 6.50487 13.7866 6.53522 13.7298C6.5656 13.673 6.59736 13.6169 6.6305 13.5617C6.66362 13.5064 6.69808 13.4519 6.7339 13.3984C6.7697 13.3448 6.80679 13.2921 6.84518 13.2403C6.88357 13.1886 6.92321 13.1378 6.96408 13.088C7.00496 13.0382 7.04703 12.9894 7.09029 12.9417C7.13357 12.8939 7.17799 12.8473 7.22355 12.8017C7.26913 12.7561 7.31579 12.7117 7.36353 12.6684C7.41128 12.6252 7.46006 12.5831 7.50988 12.5422C7.5597 12.5013 7.61048 12.4617 7.66221 12.4233C7.71397 12.3849 7.76665 12.3478 7.82024 12.312C7.87381 12.2762 7.92824 12.2417 7.98353 12.2086C8.03879 12.1755 8.09483 12.1437 8.15165 12.1133C8.2085 12.083 8.26604 12.054 8.32429 12.0265C8.38253 11.9989 8.44143 11.9728 8.50098 11.9481C8.56051 11.9235 8.62061 11.9003 8.68129 11.8786C8.74196 11.8569 8.80313 11.8367 8.86479 11.818C8.92645 11.7993 8.98853 11.7821 9.05104 11.7664C9.11355 11.7508 9.1764 11.7367 9.23959 11.7241C9.30281 11.7115 9.36629 11.7005 9.43003 11.6911C9.49376 11.6816 9.55769 11.6737 9.62181 11.6674C9.68596 11.6611 9.75022 11.6563 9.81459 11.6532C9.87893 11.65 9.94332 11.6484 10.0078 11.6484L10.0078 11.6484L10.0078 11.6484Z" id="Rectangle" fill="#32CB34" fill-rule="evenodd" stroke="none" />
          <path d="M10.0078 22.4355L32.0332 22.4355C32.0977 22.4355 32.1621 22.4371 32.2264 22.4403C32.2908 22.4435 32.355 22.4482 32.4192 22.4545C32.4833 22.4608 32.5472 22.4687 32.611 22.4782C32.6747 22.4876 32.7382 22.4986 32.8014 22.5112C32.8646 22.5238 32.9275 22.5379 32.99 22.5535C33.0525 22.5692 33.1146 22.5864 33.1762 22.6051C33.2379 22.6238 33.2991 22.644 33.3597 22.6657C33.4204 22.6874 33.4805 22.7106 33.54 22.7352C33.5996 22.7599 33.6585 22.786 33.7167 22.8136C33.775 22.8411 33.8325 22.8701 33.8894 22.9005C33.9462 22.9308 34.0022 22.9626 34.0575 22.9957C34.1128 23.0289 34.1672 23.0633 34.2208 23.0991C34.2744 23.1349 34.327 23.172 34.3788 23.2104C34.4305 23.2488 34.4813 23.2884 34.5311 23.3293C34.581 23.3702 34.6297 23.4123 34.6775 23.4555C34.7252 23.4988 34.7719 23.5432 34.8174 23.5888C34.863 23.6344 34.9074 23.681 34.9507 23.7288C34.994 23.7765 35.0361 23.8253 35.0769 23.8751C35.1178 23.9249 35.1574 23.9757 35.1958 24.0274C35.2342 24.0792 35.2713 24.1319 35.3071 24.1855C35.3429 24.239 35.3774 24.2935 35.4105 24.3488C35.4437 24.404 35.4754 24.4601 35.5058 24.5169C35.5361 24.5737 35.5651 24.6313 35.5927 24.6895C35.6202 24.7478 35.6463 24.8067 35.671 24.8662C35.6956 24.9257 35.7188 24.9858 35.7405 25.0465C35.7622 25.1072 35.7824 25.1684 35.8011 25.23C35.8198 25.2917 35.837 25.3538 35.8527 25.4163C35.8684 25.4788 35.8825 25.5416 35.895 25.6048C35.9076 25.668 35.9186 25.7315 35.9281 25.7953C35.9375 25.859 35.9454 25.9229 35.9518 25.987C35.9581 26.0512 35.9628 26.1155 35.9659 26.1798C35.9691 26.2442 35.9707 26.3086 35.9707 26.373L35.9707 26.4141C35.9707 26.4786 35.9691 26.5429 35.9659 26.6073C35.9628 26.6717 35.9581 26.7359 35.9518 26.8001C35.9454 26.8642 35.9375 26.9281 35.9281 26.9918C35.9186 27.0556 35.9076 27.1191 35.895 27.1822C35.8825 27.2455 35.8683 27.3083 35.8527 27.3708C35.837 27.4333 35.8198 27.4954 35.8011 27.5571C35.7824 27.6187 35.7622 27.6799 35.7405 27.7406C35.7188 27.8013 35.6956 27.8614 35.671 27.9209C35.6463 27.9804 35.6202 28.0393 35.5927 28.0976C35.5651 28.1558 35.5361 28.2134 35.5058 28.2702C35.4754 28.327 35.4437 28.3831 35.4105 28.4383C35.3774 28.4936 35.3429 28.5481 35.3071 28.6016C35.2713 28.6552 35.2342 28.7079 35.1958 28.7597C35.1574 28.8114 35.1178 28.8622 35.0769 28.912C35.0361 28.9618 34.994 29.0106 34.9507 29.0583C34.9074 29.1061 34.863 29.1527 34.8174 29.1983C34.7719 29.2439 34.7252 29.2883 34.6775 29.3316C34.6297 29.3748 34.581 29.4169 34.5311 29.4578C34.4813 29.4987 34.4305 29.5383 34.3788 29.5767C34.327 29.6151 34.2743 29.6522 34.2208 29.688C34.1672 29.7238 34.1128 29.7582 34.0575 29.7914C34.0022 29.8245 33.9462 29.8563 33.8894 29.8867C33.8325 29.917 33.775 29.946 33.7167 29.9735C33.6585 30.0011 33.5996 30.0272 33.54 30.0518C33.4805 30.0765 33.4204 30.0997 33.3597 30.1214C33.2991 30.1431 33.2379 30.1633 33.1762 30.182C33.1146 30.2007 33.0525 30.2179 32.99 30.2336C32.9275 30.2492 32.8646 30.2633 32.8014 30.2759C32.7382 30.2885 32.6747 30.2995 32.611 30.3089C32.5472 30.3184 32.4833 30.3263 32.4192 30.3326C32.355 30.3389 32.2908 30.3437 32.2264 30.3468C32.1621 30.35 32.0977 30.3516 32.0332 30.3516L10.0078 30.3516C9.94332 30.3516 9.87893 30.35 9.81459 30.3468C9.75022 30.3437 9.68596 30.3389 9.62181 30.3326C9.55769 30.3263 9.49376 30.3184 9.43003 30.3089C9.36629 30.2995 9.30281 30.2885 9.23959 30.2759C9.1764 30.2633 9.11355 30.2492 9.05104 30.2336C8.98853 30.2179 8.92645 30.2007 8.86479 30.182C8.80313 30.1633 8.74196 30.1431 8.68129 30.1214C8.62061 30.0997 8.56051 30.0765 8.50098 30.0519C8.44143 30.0272 8.38253 30.0011 8.32429 29.9735C8.26604 29.946 8.2085 29.917 8.15165 29.8867C8.09483 29.8563 8.03879 29.8245 7.98353 29.7914C7.92824 29.7582 7.87381 29.7238 7.82024 29.688C7.76665 29.6522 7.71397 29.6151 7.66221 29.5767C7.61048 29.5383 7.5597 29.4987 7.50988 29.4578C7.46006 29.4169 7.41128 29.3748 7.36353 29.3316C7.31579 29.2883 7.26913 29.2439 7.22355 29.1983C7.17799 29.1527 7.13357 29.1061 7.09029 29.0583C7.04703 29.0106 7.00496 28.9618 6.96408 28.912C6.92321 28.8622 6.88357 28.8114 6.84518 28.7597C6.80679 28.7079 6.7697 28.6552 6.7339 28.6016C6.69808 28.5481 6.66362 28.4936 6.6305 28.4383C6.59736 28.3831 6.5656 28.327 6.53522 28.2702C6.50487 28.2134 6.47592 28.1558 6.44835 28.0976C6.42079 28.0393 6.39468 27.9804 6.37001 27.9209C6.34538 27.8614 6.3222 27.8013 6.30049 27.7406C6.27878 27.6799 6.25857 27.6187 6.23987 27.5571C6.22117 27.4954 6.20398 27.4333 6.18831 27.3708C6.17265 27.3083 6.15854 27.2455 6.14599 27.1822C6.13341 27.1191 6.12239 27.0556 6.11293 26.9918C6.10347 26.9281 6.09558 26.8642 6.08926 26.8001C6.08295 26.7359 6.07822 26.6717 6.07507 26.6073C6.0719 26.5429 6.07031 26.4786 6.07031 26.4141L6.07031 26.373C6.07031 26.3086 6.0719 26.2442 6.07507 26.1798C6.07822 26.1155 6.08295 26.0512 6.08926 25.987C6.09558 25.9229 6.10347 25.859 6.11293 25.7953C6.12239 25.7315 6.13341 25.668 6.14599 25.6048C6.15854 25.5416 6.17265 25.4788 6.18831 25.4163C6.20398 25.3538 6.22117 25.2917 6.23987 25.23C6.25857 25.1684 6.27878 25.1072 6.30049 25.0465C6.3222 24.9858 6.34538 24.9257 6.37001 24.8662C6.39468 24.8067 6.42079 24.7478 6.44835 24.6895C6.47592 24.6313 6.50487 24.5737 6.53522 24.5169C6.5656 24.4601 6.59736 24.404 6.6305 24.3488C6.66362 24.2935 6.69808 24.239 6.7339 24.1855C6.7697 24.1319 6.80679 24.0792 6.84518 24.0274C6.88357 23.9757 6.92321 23.9249 6.96408 23.8751C7.00496 23.8253 7.04703 23.7765 7.09029 23.7288C7.13357 23.681 7.17799 23.6344 7.22355 23.5888C7.26913 23.5432 7.31579 23.4988 7.36353 23.4555C7.41128 23.4123 7.46006 23.3702 7.50988 23.3293C7.5597 23.2884 7.61048 23.2488 7.66221 23.2104C7.71397 23.172 7.76665 23.1349 7.82024 23.0991C7.87381 23.0633 7.92824 23.0289 7.98353 22.9957C8.03879 22.9626 8.09483 22.9308 8.15165 22.9005C8.2085 22.8701 8.26604 22.8411 8.32429 22.8136C8.38253 22.786 8.44143 22.7599 8.50098 22.7352C8.56051 22.7106 8.62061 22.6874 8.68129 22.6657C8.74196 22.644 8.80313 22.6238 8.86479 22.6051C8.92645 22.5864 8.98853 22.5692 9.05104 22.5535C9.11355 22.5379 9.1764 22.5238 9.23959 22.5112C9.30281 22.4986 9.36629 22.4876 9.43003 22.4782C9.49376 22.4687 9.55769 22.4608 9.62181 22.4545C9.68596 22.4482 9.75022 22.4435 9.81459 22.4403C9.87893 22.4371 9.94332 22.4355 10.0078 22.4355L10.0078 22.4355L10.0078 22.4355Z" id="Rectangle-Copy" fill="#32CB34" fill-rule="evenodd" stroke="none" />
        </g>
      </g>
    </g>
  </g>
</svg>