<?xml version="1.0" encoding="UTF-8" standalone="no" ?>
<!DOCTYPE svg PUBLIC "-//W3C//DTD SVG 1.1//EN" "http://www.w3.org/Graphics/SVG/1.1/DTD/svg11.dtd">
<svg xmlns="http://www.w3.org/2000/svg" xmlns:xlink="http://www.w3.org/1999/xlink" version="1.1" width="1024" height="1024" viewBox="0 0 1024 1024" xml:space="preserve">
<desc>Created with Fabric.js 4.6.0</desc>
<defs>
</defs>
<g transform="matrix(1 0 0 1 512 512)" id="cUVjftuy_lR5tKfwOWjTR"  >
<path style="stroke: rgb(54,215,128); stroke-width: 0; stroke-dasharray: none; stroke-linecap: butt; stroke-dashoffset: 0; stroke-linejoin: miter; stroke-miterlimit: 4; fill: rgb(244,67,54); fill-rule: nonzero; opacity: 1;" vector-effect="non-scaling-stroke"  transform=" translate(-512, -512)" d="M 512 0 C 794.624 0 1024 229.376 1024 512 C 1024 794.624 794.624 1024 512 1024 C 229.37599999999998 1024 0 794.624 0 512 C 0 229.37599999999998 229.376 0 512 0 z M 445.07476 511.57544 L 273.87983 682.77037 C 265.18345000000005 691.4667499999999 265.18345000000005 705.5663599999999 273.87983 714.26274 L 308.88814 749.2710500000001 C 317.58452 757.96743 331.68413000000004 757.96743 340.38051 749.2710500000001 L 511.57544 578.0761200000001 L 676.90292 743.4036000000001 C 685.5993 752.0999800000001 699.69891 752.0999800000001 708.39529 743.4036000000001 L 743.4036000000001 708.39529 C 752.0999800000001 699.6989100000001 752.0999800000001 685.5993000000001 743.4036000000001 676.90292 L 578.0761200000001 511.57543999999996 L 736.68703 352.96452999999997 C 745.38341 344.26815 745.38341 330.16853999999995 736.68703 321.47216 L 701.67872 286.46385 C 692.98234 277.76747 678.88273 277.76747 670.18635 286.46385 L 511.57543999999996 445.07475999999997 L 347.09707999999995 280.59639999999996 C 338.4007 271.90002 324.30108999999993 271.90002 315.60470999999995 280.59639999999996 L 280.59639999999996 315.60470999999995 C 271.90002 324.30108999999993 271.90002 338.4007 280.59639999999996 347.09707999999995 z" stroke-linecap="round" />
</g>
</svg>