<?xml version="1.0" encoding="utf-8"?>
<svg width="800px" height="800px" viewBox="0 0 800 800" version="1.1" xmlns:xlink="http://www.w3.org/1999/xlink" xmlns="http://www.w3.org/2000/svg">
  <g id="svg">
    <path d="M400 8.01574e-06C620.797 1.24404e-05 800 179.2 800 400C800 620.797 620.797 800 400 800C179.2 800 2.81843e-06 620.797 7.24305e-06 400C1.16677e-05 179.2 179.2 3.59105e-06 400 8.01574e-06L400 8.01574e-06L400 8.01574e-06ZM347.715 399.672L213.969 533.414C207.174 540.211 207.174 551.227 213.969 558.016L241.319 585.367C248.113 592.164 259.128 592.164 265.922 585.367L399.672 451.625L528.828 580.781C535.625 587.578 546.641 587.578 553.438 580.781L580.781 553.438C587.578 546.641 587.578 535.625 580.781 528.828L451.625 399.672L575.539 275.754C582.328 268.959 582.328 257.945 575.539 251.15L548.188 223.8C541.391 217.006 530.375 217.006 523.586 223.8L399.672 347.715L271.17 219.216C264.376 212.422 253.36 212.422 246.566 219.216L219.216 246.566C212.422 253.36 212.422 264.376 219.216 271.17L347.715 399.672L347.715 399.672Z" id="Shape" fill="#F44336" fill-rule="evenodd" stroke="#36D780" stroke-width="0" />
  </g>
</svg>